<?xml version="1.0" encoding="UTF-8"?>
<svg xmlns="http://www.w3.org/2000/svg" xmlns:xlink="http://www.w3.org/1999/xlink" width="80px" height="80px" viewBox="0 0 80 80" version="1.1">
<g id="surface1">
<path style="fill-rule:evenodd;fill:rgb(0%,0%,0%);fill-opacity:1;stroke-width:1.5;stroke-linecap:butt;stroke-linejoin:round;stroke:rgb(0%,0%,0%);stroke-opacity:1;stroke-miterlimit:4;" d="M 9 39.000293 L 36 39.000293 L 36 36.001025 L 9 36.001025 Z M 9 39.000293 " transform="matrix(1.777778,0,0,1.777778,0,0.533333)"/>
<path style="fill-rule:evenodd;fill:rgb(0%,0%,0%);fill-opacity:1;stroke-width:1.5;stroke-linecap:butt;stroke-linejoin:round;stroke:rgb(0%,0%,0%);stroke-opacity:1;stroke-miterlimit:4;" d="M 12.500244 31.999805 L 14.000977 29.499316 L 30.999023 29.499316 L 32.499756 31.999805 Z M 12.500244 31.999805 " transform="matrix(1.777778,0,0,1.777778,0,0.533333)"/>
<path style="fill-rule:evenodd;fill:rgb(0%,0%,0%);fill-opacity:1;stroke-width:1.5;stroke-linecap:butt;stroke-linejoin:round;stroke:rgb(0%,0%,0%);stroke-opacity:1;stroke-miterlimit:4;" d="M 11.999268 36.001025 L 11.999268 31.999805 L 33.000732 31.999805 L 33.000732 36.001025 Z M 11.999268 36.001025 " transform="matrix(1.777778,0,0,1.777778,0,0.533333)"/>
<path style="fill-rule:evenodd;fill:rgb(0%,0%,0%);fill-opacity:1;stroke-width:1.5;stroke-linecap:butt;stroke-linejoin:miter;stroke:rgb(0%,0%,0%);stroke-opacity:1;stroke-miterlimit:4;" d="M 14.000977 29.499316 L 14.000977 16.500293 L 30.999023 16.500293 L 30.999023 29.499316 Z M 14.000977 29.499316 " transform="matrix(1.777778,0,0,1.777778,0,0.533333)"/>
<path style="fill-rule:evenodd;fill:rgb(0%,0%,0%);fill-opacity:1;stroke-width:1.5;stroke-linecap:butt;stroke-linejoin:round;stroke:rgb(0%,0%,0%);stroke-opacity:1;stroke-miterlimit:4;" d="M 14.000977 16.500293 L 10.999512 13.999805 L 34.000488 13.999805 L 30.999023 16.500293 Z M 14.000977 16.500293 " transform="matrix(1.777778,0,0,1.777778,0,0.533333)"/>
<path style="fill-rule:evenodd;fill:rgb(0%,0%,0%);fill-opacity:1;stroke-width:1.5;stroke-linecap:butt;stroke-linejoin:round;stroke:rgb(0%,0%,0%);stroke-opacity:1;stroke-miterlimit:4;" d="M 10.999512 13.999805 L 10.999512 9.001025 L 15.000732 9.001025 L 15.000732 11.000537 L 19.999512 11.000537 L 19.999512 9.001025 L 25.000488 9.001025 L 25.000488 11.000537 L 29.999268 11.000537 L 29.999268 9.001025 L 34.000488 9.001025 L 34.000488 13.999805 Z M 10.999512 13.999805 " transform="matrix(1.777778,0,0,1.777778,0,0.533333)"/>
<path style="fill:none;stroke-width:1;stroke-linecap:round;stroke-linejoin:miter;stroke:rgb(100%,100%,100%);stroke-opacity:1;stroke-miterlimit:4;" d="M 11.999268 35.500049 L 33.000732 35.500049 " transform="matrix(1.777778,0,0,1.777778,0,0.533333)"/>
<path style="fill:none;stroke-width:1;stroke-linecap:round;stroke-linejoin:miter;stroke:rgb(100%,100%,100%);stroke-opacity:1;stroke-miterlimit:4;" d="M 12.999023 31.501025 L 32.000977 31.501025 " transform="matrix(1.777778,0,0,1.777778,0,0.533333)"/>
<path style="fill:none;stroke-width:1;stroke-linecap:round;stroke-linejoin:miter;stroke:rgb(100%,100%,100%);stroke-opacity:1;stroke-miterlimit:4;" d="M 14.000977 29.499316 L 30.999023 29.499316 " transform="matrix(1.777778,0,0,1.777778,0,0.533333)"/>
<path style="fill:none;stroke-width:1;stroke-linecap:round;stroke-linejoin:miter;stroke:rgb(100%,100%,100%);stroke-opacity:1;stroke-miterlimit:4;" d="M 14.000977 16.500293 L 30.999023 16.500293 " transform="matrix(1.777778,0,0,1.777778,0,0.533333)"/>
<path style="fill:none;stroke-width:1;stroke-linecap:round;stroke-linejoin:miter;stroke:rgb(100%,100%,100%);stroke-opacity:1;stroke-miterlimit:4;" d="M 10.999512 13.999805 L 34.000488 13.999805 " transform="matrix(1.777778,0,0,1.777778,0,0.533333)"/>
</g>
</svg>
