<?xml version="1.0" encoding="UTF-8"?>
<svg xmlns="http://www.w3.org/2000/svg" xmlns:xlink="http://www.w3.org/1999/xlink" width="80px" height="80px" viewBox="0 0 80 80" version="1.1">
<g id="surface1">
<path style="fill-rule:nonzero;fill:rgb(0%,0%,0%);fill-opacity:1;stroke-width:1.5;stroke-linecap:butt;stroke-linejoin:round;stroke:rgb(0%,0%,0%);stroke-opacity:1;stroke-miterlimit:4;" d="M 9 26.000244 C 17.499023 24.499512 29.999268 24.499512 36 26.000244 L 38.500488 13.5 L 30.999023 25.000488 L 30.700195 10.900635 L 25.499268 24.499512 L 22.5 9.999756 L 19.500732 24.499512 L 14.299805 10.900635 L 14.000977 25.000488 L 6.499512 13.5 Z M 9 26.000244 " transform="matrix(1.777778,0,0,1.777778,0,0)"/>
<path style="fill-rule:nonzero;fill:rgb(0%,0%,0%);fill-opacity:1;stroke-width:1.5;stroke-linecap:round;stroke-linejoin:round;stroke:rgb(0%,0%,0%);stroke-opacity:1;stroke-miterlimit:4;" d="M 9 26.000244 C 9 27.999756 10.500732 27.999756 11.500488 29.999268 C 12.500244 31.5 12.500244 30.999023 11.999268 33.499512 C 10.500732 34.499268 10.999512 36 10.999512 36 C 9.500977 37.500732 10.999512 38.500488 10.999512 38.500488 C 17.499023 39.500244 27.500977 39.500244 34.000488 38.500488 C 34.000488 38.500488 35.499023 37.500732 34.000488 36 C 34.000488 36 34.499268 34.499268 33.000732 33.499512 C 32.499756 30.999023 32.499756 31.5 33.499512 29.999268 C 34.499268 27.999756 36 27.999756 36 26.000244 C 27.500977 24.499512 17.499023 24.499512 9 26.000244 Z M 9 26.000244 " transform="matrix(1.777778,0,0,1.777778,0,0)"/>
<path style="fill-rule:nonzero;fill:rgb(0%,0%,0%);fill-opacity:1;stroke-width:1.5;stroke-linecap:round;stroke-linejoin:round;stroke:rgb(0%,0%,0%);stroke-opacity:1;stroke-miterlimit:4;" d="M 11.500488 29.999268 C 15.000732 28.999512 29.999268 28.999512 33.499512 29.999268 " transform="matrix(1.777778,0,0,1.777778,0,0)"/>
<path style="fill-rule:nonzero;fill:rgb(0%,0%,0%);fill-opacity:1;stroke-width:1.5;stroke-linecap:round;stroke-linejoin:round;stroke:rgb(0%,0%,0%);stroke-opacity:1;stroke-miterlimit:4;" d="M 11.999268 33.499512 C 18 32.499756 27 32.499756 33.000732 33.499512 " transform="matrix(1.777778,0,0,1.777778,0,0)"/>
<path style="fill-rule:nonzero;fill:rgb(0%,0%,0%);fill-opacity:1;stroke-width:1.5;stroke-linecap:round;stroke-linejoin:round;stroke:rgb(0%,0%,0%);stroke-opacity:1;stroke-miterlimit:4;" d="M 8.000244 11.999268 C 8.000244 10.89624 7.10376 9.999756 6.000732 9.999756 C 4.895508 9.999756 3.999023 10.89624 3.999023 11.999268 C 3.999023 13.104492 4.895508 14.000977 6.000732 14.000977 C 7.10376 14.000977 8.000244 13.104492 8.000244 11.999268 Z M 8.000244 11.999268 " transform="matrix(1.777778,0,0,1.777778,0,0)"/>
<path style="fill-rule:nonzero;fill:rgb(0%,0%,0%);fill-opacity:1;stroke-width:1.5;stroke-linecap:round;stroke-linejoin:round;stroke:rgb(0%,0%,0%);stroke-opacity:1;stroke-miterlimit:4;" d="M 16.000488 9 C 16.000488 7.894775 15.104004 7.000488 14.000977 7.000488 C 12.895752 7.000488 11.999268 7.894775 11.999268 9 C 11.999268 10.105225 12.895752 10.999512 14.000977 10.999512 C 15.104004 10.999512 16.000488 10.105225 16.000488 9 Z M 16.000488 9 " transform="matrix(1.777778,0,0,1.777778,0,0)"/>
<path style="fill-rule:nonzero;fill:rgb(0%,0%,0%);fill-opacity:1;stroke-width:1.5;stroke-linecap:round;stroke-linejoin:round;stroke:rgb(0%,0%,0%);stroke-opacity:1;stroke-miterlimit:4;" d="M 24.499512 8.000244 C 24.499512 6.89502 23.605225 6.000732 22.5 6.000732 C 21.394775 6.000732 20.500488 6.89502 20.500488 8.000244 C 20.500488 9.105469 21.394775 9.999756 22.5 9.999756 C 23.605225 9.999756 24.499512 9.105469 24.499512 8.000244 Z M 24.499512 8.000244 " transform="matrix(1.777778,0,0,1.777778,0,0)"/>
<path style="fill-rule:nonzero;fill:rgb(0%,0%,0%);fill-opacity:1;stroke-width:1.5;stroke-linecap:round;stroke-linejoin:round;stroke:rgb(0%,0%,0%);stroke-opacity:1;stroke-miterlimit:4;" d="M 33.000732 9 C 33.000732 7.894775 32.104248 7.000488 30.999023 7.000488 C 29.895996 7.000488 28.999512 7.894775 28.999512 9 C 28.999512 10.105225 29.895996 10.999512 30.999023 10.999512 C 32.104248 10.999512 33.000732 10.105225 33.000732 9 Z M 33.000732 9 " transform="matrix(1.777778,0,0,1.777778,0,0)"/>
<path style="fill-rule:nonzero;fill:rgb(0%,0%,0%);fill-opacity:1;stroke-width:1.5;stroke-linecap:round;stroke-linejoin:round;stroke:rgb(0%,0%,0%);stroke-opacity:1;stroke-miterlimit:4;" d="M 41.000977 11.999268 C 41.000977 10.89624 40.104492 9.999756 38.999268 9.999756 C 37.89624 9.999756 36.999756 10.89624 36.999756 11.999268 C 36.999756 13.104492 37.89624 14.000977 38.999268 14.000977 C 40.104492 14.000977 41.000977 13.104492 41.000977 11.999268 Z M 41.000977 11.999268 " transform="matrix(1.777778,0,0,1.777778,0,0)"/>
<path style="fill:none;stroke-width:1.5;stroke-linecap:butt;stroke-linejoin:round;stroke:rgb(0%,0%,0%);stroke-opacity:1;stroke-miterlimit:4;" d="M 10.999512 38.500488 C 18.448242 41.091064 26.551758 41.091064 34.000488 38.500488 " transform="matrix(1.777778,0,0,1.777778,0,0)"/>
<path style="fill:none;stroke-width:1.5;stroke-linecap:round;stroke-linejoin:round;stroke:rgb(100%,100%,100%);stroke-opacity:1;stroke-miterlimit:4;" d="M 10.999512 28.999512 C 18.448242 26.408936 26.551758 26.408936 34.000488 28.999512 " transform="matrix(1.777778,0,0,1.777778,0,0)"/>
<path style="fill:none;stroke-width:1.5;stroke-linecap:round;stroke-linejoin:round;stroke:rgb(100%,100%,100%);stroke-opacity:1;stroke-miterlimit:4;" d="M 12.500244 31.5 L 32.499756 31.5 " transform="matrix(1.777778,0,0,1.777778,0,0)"/>
<path style="fill:none;stroke-width:1.5;stroke-linecap:round;stroke-linejoin:round;stroke:rgb(100%,100%,100%);stroke-opacity:1;stroke-miterlimit:4;" d="M 11.500488 34.499268 C 18.643799 36.865723 26.356201 36.865723 33.499512 34.499268 " transform="matrix(1.777778,0,0,1.777778,0,0)"/>
<path style="fill:none;stroke-width:1.5;stroke-linecap:round;stroke-linejoin:round;stroke:rgb(100%,100%,100%);stroke-opacity:1;stroke-miterlimit:4;" d="M 10.500732 37.500732 C 18.250488 40.328613 26.749512 40.328613 34.499268 37.500732 " transform="matrix(1.777778,0,0,1.777778,0,0)"/>
</g>
</svg>
