<?xml version="1.0" encoding="UTF-8"?>
<svg xmlns="http://www.w3.org/2000/svg" xmlns:xlink="http://www.w3.org/1999/xlink" width="80px" height="80px" viewBox="0 0 80 80" version="1.1">
<g id="surface1">
<path style="fill-rule:evenodd;fill:rgb(100%,100%,100%);fill-opacity:1;stroke-width:1.5;stroke-linecap:butt;stroke-linejoin:round;stroke:rgb(0%,0%,0%);stroke-opacity:1;stroke-miterlimit:4;" d="M 9 35.999853 C 12.390381 35.030859 19.109619 36.430518 22.5 34.000342 C 25.890381 36.430518 32.609619 35.030859 36 35.999853 C 36 35.999853 37.650146 36.540381 38.999268 37.999365 C 38.320312 38.970557 37.349121 38.990332 36 38.500342 C 32.609619 37.52915 25.890381 38.95957 22.5 37.500586 C 19.109619 38.95957 12.390381 37.52915 9 38.500342 C 7.650879 38.990332 6.679688 38.970557 6.000732 37.999365 C 7.349854 36.540381 9 35.999853 9 35.999853 Z M 9 35.999853 " transform="matrix(1.777778,0,0,1.777778,0,1.066667)"/>
<path style="fill-rule:evenodd;fill:rgb(100%,100%,100%);fill-opacity:1;stroke-width:1.5;stroke-linecap:butt;stroke-linejoin:round;stroke:rgb(0%,0%,0%);stroke-opacity:1;stroke-miterlimit:4;" d="M 15.000732 32.00083 C 17.499023 34.499121 27.500977 34.499121 29.999268 32.00083 C 30.500244 30.500098 29.999268 29.999121 29.999268 29.999121 C 29.999268 27.50083 27.500977 26.000098 27.500977 26.000098 C 33.000732 24.499365 33.499512 14.499609 22.5 10.500586 C 11.500488 14.499609 11.999268 24.499365 17.499023 26.000098 C 17.499023 26.000098 15.000732 27.50083 15.000732 29.999121 C 15.000732 29.999121 14.499756 30.500098 15.000732 32.00083 Z M 15.000732 32.00083 " transform="matrix(1.777778,0,0,1.777778,0,1.066667)"/>
<path style="fill-rule:evenodd;fill:rgb(100%,100%,100%);fill-opacity:1;stroke-width:1.5;stroke-linecap:butt;stroke-linejoin:round;stroke:rgb(0%,0%,0%);stroke-opacity:1;stroke-miterlimit:4;" d="M 25.000488 8.000098 C 25.000488 9.37998 23.879883 10.500586 22.5 10.500586 C 21.120117 10.500586 19.999512 9.37998 19.999512 8.000098 C 19.999512 6.620215 21.120117 5.499609 22.5 5.499609 C 23.879883 5.499609 25.000488 6.620215 25.000488 8.000098 Z M 25.000488 8.000098 " transform="matrix(1.777778,0,0,1.777778,0,1.066667)"/>
<path style="fill:none;stroke-width:1.5;stroke-linecap:round;stroke-linejoin:miter;stroke:rgb(0%,0%,0%);stroke-opacity:1;stroke-miterlimit:4;" d="M 17.499023 26.000098 L 27.500977 26.000098 M 15.000732 29.999121 L 29.999268 29.999121 M 22.5 15.499365 L 22.5 20.500342 M 19.999512 17.999853 L 25.000488 17.999853 " transform="matrix(1.777778,0,0,1.777778,0,1.066667)"/>
</g>
</svg>
