<?xml version="1.0" encoding="UTF-8"?>
<svg xmlns="http://www.w3.org/2000/svg" xmlns:xlink="http://www.w3.org/1999/xlink" width="80px" height="80px" viewBox="0 0 80 80" version="1.1">
<g id="surface1">
<path style="fill:none;stroke-width:1.5;stroke-linecap:round;stroke-linejoin:miter;stroke:rgb(0%,0%,0%);stroke-opacity:1;stroke-miterlimit:4;" d="M 22.500005 11.63013 L 22.500005 6.000734 M 20.001714 8.000246 L 24.998297 8.000246 " transform="matrix(1.777777,0,0,1.777777,0,0)"/>
<path style="fill-rule:evenodd;fill:rgb(100%,100%,100%);fill-opacity:1;stroke-width:1.5;stroke-linecap:butt;stroke-linejoin:miter;stroke:rgb(0%,0%,0%);stroke-opacity:1;stroke-miterlimit:4;" d="M 22.500005 24.998297 C 22.500005 24.998297 27.000006 17.499028 25.499274 14.499759 C 25.499274 14.499759 24.501715 11.99927 22.500005 11.99927 C 20.498296 11.99927 19.500737 14.499759 19.500737 14.499759 C 18.000004 17.499028 22.500005 24.998297 22.500005 24.998297 " transform="matrix(1.777777,0,0,1.777777,0,0)"/>
<path style="fill-rule:evenodd;fill:rgb(100%,100%,100%);fill-opacity:1;stroke-width:1.5;stroke-linecap:round;stroke-linejoin:round;stroke:rgb(0%,0%,0%);stroke-opacity:1;stroke-miterlimit:4;" d="M 12.500247 36.999765 C 18.000004 40.50001 27.000006 40.50001 32.499764 36.999765 L 32.499764 29.999275 C 32.499764 29.999275 41.499766 25.499274 38.4983 19.500737 C 34.499276 12.999027 24.998297 15.998295 22.500005 23.499761 L 22.500005 27.000006 L 22.500005 23.499761 C 20.001714 15.998295 10.500735 12.999027 6.501711 19.500737 C 3.500245 25.499274 12.500247 29.999275 12.500247 29.999275 L 12.500247 36.999765 " transform="matrix(1.777777,0,0,1.777777,0,0)"/>
<path style="fill:none;stroke-width:1.5;stroke-linecap:round;stroke-linejoin:round;stroke:rgb(0%,0%,0%);stroke-opacity:1;stroke-miterlimit:4;" d="M 12.500247 29.999275 C 18.000004 27.000006 27.000006 27.000006 32.499764 29.999275 M 12.500247 33.501717 C 18.000004 30.500251 27.000006 30.500251 32.499764 33.501717 M 12.500247 36.999765 C 18.000004 33.998299 27.000006 33.998299 32.499764 36.999765 " transform="matrix(1.777777,0,0,1.777777,0,0)"/>
</g>
</svg>
