<?xml version="1.0" encoding="UTF-8"?>
<svg xmlns="http://www.w3.org/2000/svg" xmlns:xlink="http://www.w3.org/1999/xlink" width="80px" height="80px" viewBox="0 0 80 80" version="1.1">
<g id="surface1">
<path style="fill-rule:evenodd;fill:rgb(100%,100%,100%);fill-opacity:1;stroke-width:1.5;stroke-linecap:round;stroke-linejoin:round;stroke:rgb(0%,0%,0%);stroke-opacity:1;stroke-miterlimit:4;" d="M 21.999023 10.000781 C 32.499756 11.000537 38.500488 18.001025 37.999512 39.000293 L 15.000732 39.000293 C 15.000732 30.000293 25.000488 32.500781 23.000977 18.001025 " transform="matrix(1.777778,0,0,1.777778,0,0.533333)"/>
<path style="fill-rule:evenodd;fill:rgb(100%,100%,100%);fill-opacity:1;stroke-width:1.5;stroke-linecap:round;stroke-linejoin:round;stroke:rgb(0%,0%,0%);stroke-opacity:1;stroke-miterlimit:4;" d="M 24.000732 18.001025 C 24.380859 20.910205 18.450439 25.370654 16.000488 27.001025 C 12.999023 29.000537 13.179199 31.340625 10.999512 31.000049 C 9.958008 30.059619 12.410156 27.959033 10.999512 28.000781 C 9.999756 28.000781 11.190674 29.229053 9.999756 30.000293 C 9 30.000293 5.996338 31.000049 6.000732 25.999072 C 6.000732 23.999561 11.999268 13.999805 11.999268 13.999805 C 11.999268 13.999805 13.888916 12.09917 14.000977 10.499561 C 13.269287 9.506396 13.5 8.500049 13.5 7.500293 C 14.499756 6.500537 16.499268 10.000781 16.499268 10.000781 L 18.500977 10.000781 C 18.500977 10.000781 19.281006 8.007861 20.999268 6.999316 C 21.999023 6.999316 21.999023 10.000781 21.999023 10.000781 " transform="matrix(1.777778,0,0,1.777778,0,0.533333)"/>
<path style="fill-rule:evenodd;fill:rgb(0%,0%,0%);fill-opacity:1;stroke-width:1.5;stroke-linecap:round;stroke-linejoin:round;stroke:rgb(0%,0%,0%);stroke-opacity:1;stroke-miterlimit:4;" d="M 9.500977 25.500293 C 9.500977 25.777148 9.276855 25.999072 9 25.999072 C 8.723145 25.999072 8.499023 25.777148 8.499023 25.500293 C 8.499023 25.223437 8.723145 24.999316 9 24.999316 C 9.276855 24.999316 9.500977 25.223437 9.500977 25.500293 Z M 9.500977 25.500293 " transform="matrix(1.777778,0,0,1.777778,0,0.533333)"/>
<path style="fill-rule:evenodd;fill:rgb(0%,0%,0%);fill-opacity:1;stroke-width:1.5;stroke-linecap:round;stroke-linejoin:round;stroke:rgb(0%,0%,0%);stroke-opacity:1;stroke-miterlimit:4;" d="M 15.000181 15.501079 C 15.000603 16.327982 14.777118 16.999988 14.500484 16.999861 C 14.223849 16.999733 14.000355 16.326997 13.999933 15.500095 C 14.000316 14.670191 14.224899 14.000087 14.499631 14.001314 C 14.775167 13.999538 15.000564 14.671175 15.000181 15.501079 Z M 15.000181 15.501079 " transform="matrix(1.539556,0.888889,-0.888889,1.539556,17.232,-8.663111)"/>
</g>
</svg>
