<?xml version="1.0" encoding="UTF-8"?>
<svg xmlns="http://www.w3.org/2000/svg" xmlns:xlink="http://www.w3.org/1999/xlink" width="80px" height="80px" viewBox="0 0 80 80" version="1.1">
<g id="surface1">
<path style="fill:none;stroke-width:1.5;stroke-linecap:round;stroke-linejoin:miter;stroke:rgb(0%,0%,0%);stroke-opacity:1;stroke-miterlimit:4;" d="M 22.5 11.630127 L 22.5 6.000732 " transform="matrix(1.777778,0,0,1.777778,0,0)"/>
<path style="fill-rule:evenodd;fill:rgb(0%,0%,0%);fill-opacity:1;stroke-width:1.5;stroke-linecap:butt;stroke-linejoin:miter;stroke:rgb(0%,0%,0%);stroke-opacity:1;stroke-miterlimit:4;" d="M 22.5 25.000488 C 22.5 25.000488 27 17.499023 25.499268 14.499756 C 25.499268 14.499756 24.499512 11.999268 22.5 11.999268 C 20.500488 11.999268 19.500732 14.499756 19.500732 14.499756 C 18 17.499023 22.5 25.000488 22.5 25.000488 " transform="matrix(1.777778,0,0,1.777778,0,0)"/>
<path style="fill-rule:evenodd;fill:rgb(0%,0%,0%);fill-opacity:1;stroke-width:1.5;stroke-linecap:round;stroke-linejoin:round;stroke:rgb(0%,0%,0%);stroke-opacity:1;stroke-miterlimit:4;" d="M 12.500244 36.999756 C 18 40.5 27 40.5 32.499756 36.999756 L 32.499756 29.999268 C 32.499756 29.999268 41.499756 25.499268 38.500488 19.500732 C 34.499268 12.999023 25.000488 16.000488 22.5 23.499756 L 22.5 27 L 22.5 23.499756 C 19.999512 16.000488 10.500732 12.999023 6.499512 19.500732 C 3.500244 25.499268 12.500244 29.999268 12.500244 29.999268 L 12.500244 36.999756 " transform="matrix(1.777778,0,0,1.777778,0,0)"/>
<path style="fill:none;stroke-width:1.5;stroke-linecap:round;stroke-linejoin:miter;stroke:rgb(0%,0%,0%);stroke-opacity:1;stroke-miterlimit:4;" d="M 19.999512 8.000244 L 25.000488 8.000244 " transform="matrix(1.777778,0,0,1.777778,0,0)"/>
<path style="fill:none;stroke-width:1.5;stroke-linecap:round;stroke-linejoin:round;stroke:rgb(100%,100%,100%);stroke-opacity:1;stroke-miterlimit:4;" d="M 32.000977 29.500488 C 32.000977 29.500488 40.5 25.499268 38.030273 19.850098 C 34.149902 14.000977 25.000488 18 22.5 24.499512 L 22.5 26.600098 L 22.5 24.499512 C 19.999512 18 10.850098 14.000977 6.969727 19.850098 C 4.5 25.499268 12.999023 29.500488 12.999023 29.500488 " transform="matrix(1.777778,0,0,1.777778,0,0)"/>
<path style="fill:none;stroke-width:1.5;stroke-linecap:round;stroke-linejoin:round;stroke:rgb(100%,100%,100%);stroke-opacity:1;stroke-miterlimit:4;" d="M 12.500244 29.999268 C 18 27 27 27 32.499756 29.999268 M 12.500244 33.499512 C 18 30.500244 27 30.500244 32.499756 33.499512 M 12.500244 36.999756 C 18 34.000488 27 34.000488 32.499756 36.999756 " transform="matrix(1.777778,0,0,1.777778,0,0)"/>
</g>
</svg>
