<?xml version="1.0" encoding="UTF-8"?>
<svg xmlns="http://www.w3.org/2000/svg" xmlns:xlink="http://www.w3.org/1999/xlink" width="80px" height="80px" viewBox="0 0 80 80" version="1.1">
<g id="surface1">
<path style="fill-rule:nonzero;fill:rgb(0%,0%,0%);fill-opacity:1;stroke-width:1.5;stroke-linecap:round;stroke-linejoin:miter;stroke:rgb(0%,0%,0%);stroke-opacity:1;stroke-miterlimit:4;" d="M 22.5 9 C 20.289551 9 18.500977 10.790771 18.500977 12.999023 C 18.500977 13.888916 18.791016 14.710693 19.281006 15.380859 C 17.329834 16.499268 16.000488 18.591064 16.000488 20.999268 C 16.000488 23.029541 16.940918 24.840088 18.410889 26.031006 C 15.409424 27.090088 10.999512 31.579102 10.999512 39.500244 L 34.000488 39.500244 C 34.000488 31.579102 29.590576 27.090088 26.589111 26.031006 C 28.059082 24.840088 28.999512 23.029541 28.999512 20.999268 C 28.999512 18.591064 27.670166 16.499268 25.718994 15.380859 C 26.208984 14.710693 26.499023 13.888916 26.499023 12.999023 C 26.499023 10.790771 24.710449 9 22.5 9 Z M 22.5 9 " transform="matrix(1.777778,0,0,1.777778,0,0)"/>
</g>
</svg>
